<?xml version="1.0" standalone="no"?>
<!DOCTYPE svg PUBLIC "-//W3C//DTD SVG 20010904//EN"
 "http://www.w3.org/TR/2001/REC-SVG-20010904/DTD/svg10.dtd">
<svg version="1.0" xmlns="http://www.w3.org/2000/svg"
 width="1400.000000pt" height="400.000000pt" viewBox="0 0 1400.000000 400.000000"
 preserveAspectRatio="xMidYMid meet">
<metadata>
Created by potrace 1.13, written by Peter Selinger 2001-2015
</metadata>
<g transform="translate(0.000000,400.000000) scale(0.100000,-0.100000)"
fill="#000000" stroke="none">
<path d="M313 3993 c10 -3 17 -14 17 -29 0 -13 5 -24 10 -24 6 0 10 -7 10 -15
0 -9 7 -18 15 -21 8 -4 15 -17 15 -30 0 -14 7 -27 15 -30 8 -4 15 -17 15 -30
0 -15 6 -24 15 -24 10 0 15 -10 15 -30 0 -16 5 -30 10 -30 6 0 10 -7 10 -15 0
-9 7 -18 15 -21 8 -4 15 -15 15 -25 0 -10 7 -19 15 -19 8 0 15 -9 15 -20 0
-11 5 -20 10 -20 6 0 10 -9 10 -20 0 -11 7 -23 15 -26 8 -4 15 -13 15 -21 0
-7 12 -25 28 -38 l27 -24 -31 -1 c-17 0 -52 -3 -78 -6 l-46 -7 25 -23 c14 -13
25 -30 25 -39 0 -8 5 -15 10 -15 6 0 10 -9 10 -20 0 -17 -7 -20 -47 -20 -52 1
-83 17 -83 44 0 9 -7 19 -15 22 -8 4 -15 15 -15 26 0 18 -5 20 -42 15 -24 -4
-109 -12 -191 -18 l-147 -12 0 -118 0 -117 41 -4 c40 -4 221 9 434 31 55 6
161 13 235 16 75 3 165 10 200 15 36 5 155 14 265 20 110 6 301 20 425 31 124
11 288 24 365 29 77 5 185 13 240 19 105 10 299 26 500 41 66 4 210 16 320 25
110 9 312 25 449 36 137 11 340 24 451 29 111 5 244 16 296 24 52 9 193 20
315 26 121 5 258 15 303 21 46 6 107 9 137 7 29 -3 51 -1 48 4 -3 4 18 8 45 8
48 0 67 -12 38 -23 -6 -3 4 -6 23 -6 19 -1 66 -4 104 -8 49 -4 67 -3 62 5 -10
17 32 25 93 16 l56 -8 -45 -7 c-38 -5 -40 -6 -12 -7 17 -1 32 -6 32 -10 0 -14
74 -36 78 -23 2 7 29 11 71 11 37 0 72 5 78 11 5 5 64 12 129 14 108 3 117 2
99 -12 -17 -13 -17 -15 -2 -10 23 8 138 -4 132 -13 -3 -4 6 -11 20 -14 14 -4
25 -11 25 -16 0 -6 9 -10 19 -10 11 0 28 -3 38 -7 14 -6 11 -9 -17 -14 l-35
-6 33 -2 c18 0 42 -9 53 -20 19 -17 19 -19 2 -25 -17 -7 -17 -8 0 -17 26 -15
21 -39 -7 -39 -14 0 -28 -4 -31 -10 -15 -24 -85 5 -85 36 0 15 -47 24 -122 24
-43 0 -60 4 -64 15 -4 8 -10 15 -15 15 -5 0 -18 9 -29 20 -16 16 -17 20 -5 20
8 0 15 4 15 9 0 12 -86 20 -295 26 -181 5 -226 11 -203 27 14 10 -35 5 -79 -8
-17 -5 -23 -2 -23 10 0 9 -8 16 -18 16 -25 0 -23 -41 3 -57 19 -12 19 -12 -5
-13 -15 0 -31 -5 -37 -11 -7 -7 -22 -4 -49 10 -34 18 -54 20 -155 16 -71 -2
-139 -10 -175 -21 -57 -17 -58 -18 -31 -28 15 -5 27 -13 27 -17 0 -9 -131 -28
-147 -22 -7 3 -13 11 -13 19 0 10 -7 13 -24 8 -34 -8 -69 12 -61 37 5 15 2 19
-19 19 -17 0 -26 -5 -26 -16 0 -14 -7 -15 -45 -10 -38 6 -44 5 -39 -8 3 -9 1
-16 -5 -16 -20 0 -101 -40 -101 -50 0 -5 12 -10 28 -12 l27 -4 -28 -12 c-16
-7 -77 -12 -143 -12 -63 0 -122 -4 -132 -9 -26 -13 -112 -39 -154 -46 -21 -4
-38 -10 -38 -14 0 -10 52 -31 78 -31 13 0 21 -4 18 -9 -4 -5 0 -11 6 -14 17
-6 -67 -45 -114 -53 -21 -4 -38 -10 -38 -15 0 -5 -11 -9 -25 -9 -14 0 -28 -7
-31 -15 -4 -8 -11 -15 -18 -15 -6 0 -23 -12 -38 -27 -14 -16 -38 -37 -52 -48
-14 -11 -26 -26 -26 -32 0 -7 -7 -13 -15 -13 -8 0 -15 -3 -15 -8 0 -4 -14 -13
-30 -20 -17 -8 -30 -20 -30 -28 0 -8 -4 -14 -10 -14 -5 0 -10 -11 -10 -25 0
-14 5 -25 10 -25 6 0 10 -23 10 -50 0 -36 4 -52 15 -56 8 -4 15 -14 15 -24 0
-9 12 -26 26 -36 14 -10 30 -29 35 -42 5 -12 19 -26 31 -31 21 -9 46 -27 101
-73 11 -10 33 -18 49 -18 28 0 38 -14 16 -23 -10 -4 -10 -6 0 -6 7 -1 12 -15
12 -36 0 -24 5 -35 15 -35 21 0 19 -26 -6 -51 -18 -18 -37 -21 -159 -26 -124
-5 -140 -4 -146 10 -4 11 -17 17 -35 17 -16 0 -29 5 -29 10 0 6 -24 9 -57 8
-32 -2 -71 1 -88 5 -22 5 -26 5 -15 -3 29 -19 -23 -11 -65 10 -22 11 -51 20
-65 19 -25 -1 -25 -1 5 -15 l30 -15 -37 5 c-20 2 -52 11 -70 19 -18 8 -53 18
-78 21 -25 4 -67 14 -93 22 -43 14 -50 14 -60 1 -7 -8 -19 -17 -27 -20 -10 -4
-7 -6 8 -6 63 -2 -33 -41 -101 -41 -18 0 -17 3 11 16 32 17 43 34 19 34 -13 0
-58 -27 -67 -41 -3 -4 -41 -20 -85 -35 -75 -27 -90 -28 -235 -28 -85 1 -171 6
-190 12 l-35 10 55 2 55 3 -73 7 c-40 5 -79 13 -86 19 -11 9 -38 8 -111 -5
-84 -14 -108 -15 -171 -4 -81 14 -102 10 -55 -11 17 -8 31 -21 31 -30 0 -9 7
-20 16 -23 8 -3 13 -10 10 -15 -3 -5 9 -14 27 -20 23 -9 28 -14 18 -20 -11 -7
-11 -9 0 -14 11 -3 9 -9 -6 -21 -18 -14 -18 -15 -2 -16 9 0 17 -6 17 -14 0 -8
7 -16 15 -20 8 -3 15 -15 15 -26 0 -11 5 -20 10 -20 6 0 10 -6 10 -13 0 -14
35 -47 50 -47 6 0 10 -9 10 -20 0 -11 4 -20 9 -20 5 0 16 -13 24 -29 15 -29
14 -30 -12 -34 -17 -3 -11 -5 17 -6 24 0 41 -5 38 -10 -3 -5 -16 -7 -29 -3
-22 5 -22 5 -3 -16 11 -12 25 -22 32 -22 7 0 18 -9 25 -21 10 -20 9 -21 -23
-13 -57 12 -225 9 -242 -5 -8 -7 -20 -10 -26 -6 -5 3 -20 3 -33 -1 l-22 -8 25
-8 c22 -7 22 -7 -5 -3 -16 2 -41 7 -55 10 -22 5 -23 4 -5 -5 25 -12 -130 -8
-159 5 -13 6 -17 5 -13 -2 4 -6 1 -14 -5 -17 -7 -4 2 -4 20 -1 17 2 32 0 32
-5 0 -6 -8 -10 -17 -10 -17 -1 -17 -1 0 -14 21 -16 22 -36 2 -36 -8 0 -15 -4
-15 -10 0 -5 -21 -10 -46 -10 -42 0 -45 -1 -39 -22 4 -13 14 -29 24 -36 14
-12 11 -13 -19 -5 -41 10 -147 10 -157 0 -3 -4 2 -14 13 -22 26 -20 142 -20
182 1 23 11 36 12 49 5 14 -8 15 -10 3 -11 -13 0 -13 -2 0 -9 8 -6 18 -7 22
-5 4 3 8 0 8 -6 0 -7 -9 -14 -20 -17 -24 -6 -26 -28 -4 -37 9 -3 37 -6 64 -6
55 0 89 -11 119 -37 50 -43 14 -63 -119 -65 -66 -1 -104 -6 -111 -14 -8 -9 -5
-11 10 -7 14 4 21 1 21 -9 0 -8 15 -19 32 -25 l33 -9 -35 -19 c-22 -11 -77
-23 -145 -31 l-110 -12 123 -1 c115 -1 124 -2 129 -21 3 -11 11 -20 18 -20 7
0 18 -6 24 -14 10 -12 -10 -15 -126 -20 -76 -3 -185 -11 -243 -16 -58 -6 -166
-10 -240 -10 -74 -1 -193 -5 -265 -10 -71 -5 -241 -12 -376 -16 -242 -7 -248
-7 -289 15 -65 34 -80 23 -80 -55 l0 -64 48 0 c26 0 105 5 177 10 72 6 263 15
425 20 162 6 351 12 420 15 78 3 116 1 100 -4 -23 -8 -21 -9 15 -12 34 -2 36
-3 10 -6 -16 -2 -37 -6 -45 -10 -29 -10 -145 -12 -129 -2 9 7 -21 8 -96 3
-129 -9 -132 -9 -253 -1 -51 3 -90 3 -88 -1 2 -4 -29 -7 -71 -7 -41 0 -77 -3
-79 -6 -2 -4 -77 -8 -166 -9 -90 -1 -187 -2 -216 -2 l-52 -1 0 -559 0 -558
885 0 c487 0 885 3 885 8 0 12 -36 40 -116 89 -41 25 -74 50 -74 54 0 5 -5 9
-10 9 -6 0 -20 9 -32 20 l-21 19 25 10 c13 5 67 14 119 21 52 6 123 19 159 30
48 14 112 20 250 24 166 5 235 12 475 46 105 15 205 43 205 56 0 19 -52 26
-105 14 -26 -6 -50 -9 -52 -6 -11 11 11 26 38 26 22 0 32 6 39 25 5 14 14 25
20 25 5 0 10 7 10 15 0 8 5 15 10 15 6 0 10 20 10 45 0 41 -2 45 -27 51 -45
10 -50 12 -20 13 l27 1 0 106 0 106 -144 -7 c-109 -6 -145 -5 -151 5 -4 7 -2
16 6 21 10 6 7 9 -11 9 -28 1 -60 21 -60 39 0 6 -4 11 -10 11 -5 0 -10 7 -10
15 0 9 -7 18 -15 21 -8 4 -15 12 -15 19 0 7 -7 15 -15 19 -8 3 -15 10 -15 16
0 16 -81 90 -99 90 -12 0 -11 4 5 18 17 16 45 20 194 26 460 18 566 25 602 41
30 12 28 13 -48 20 -43 4 -85 12 -93 18 -11 9 -15 9 -18 0 -3 -7 -9 -13 -14
-13 -4 0 -6 7 -3 15 4 11 -1 15 -17 15 -13 0 -34 3 -46 6 -20 6 -23 3 -23 -24
0 -17 -4 -33 -8 -36 -5 -3 -195 -6 -423 -7 -228 -1 -417 -6 -420 -10 -3 -5
-32 -4 -65 2 -32 6 -89 8 -126 5 -58 -5 -73 -3 -113 17 l-46 24 68 6 c37 4
122 7 188 7 66 0 201 5 300 10 437 24 597 29 617 17 14 -9 20 -9 26 0 9 14
416 35 480 25 20 -2 32 0 32 7 0 6 16 11 37 11 20 0 59 6 87 14 28 8 67 19 86
24 l35 10 -37 1 c-37 1 -56 21 -20 21 10 0 22 4 28 9 14 13 84 23 84 12 0 -5
-6 -12 -12 -14 -27 -11 30 -6 98 8 95 20 218 71 208 87 -9 14 -74 10 -74 -6 0
-8 -20 -19 -47 -26 -27 -7 -57 -19 -68 -27 -23 -15 -45 -17 -45 -3 0 6 5 10
10 10 6 0 17 5 24 12 10 10 5 16 -23 30 -26 13 -58 18 -121 18 -99 0 -247 -17
-274 -32 -13 -7 -21 -6 -26 1 -5 9 -19 9 -50 2 -28 -6 -62 -6 -94 0 -27 5 -64
7 -80 4 -82 -13 -337 -27 -571 -30 -158 -2 -289 -9 -335 -17 -60 -11 -102 -12
-215 -3 -195 16 -211 25 -120 69 37 17 72 26 105 26 27 0 51 4 54 8 7 11 206
-5 221 -18 9 -8 15 -8 20 0 9 14 -3 30 -23 31 -12 0 -11 3 6 9 12 5 22 17 22
25 0 13 -6 15 -30 10 -23 -5 -30 -3 -30 9 0 9 6 16 14 16 8 0 16 7 20 15 8 22
26 18 26 -5 0 -22 15 -27 26 -8 11 17 -25 38 -70 39 -30 2 -34 3 -13 6 40 6
33 23 -10 24 -28 1 -31 3 -13 6 23 5 23 6 -13 23 -21 11 -45 16 -54 13 -9 -4
-19 1 -25 10 -5 10 -16 17 -24 17 -8 0 -12 5 -8 11 4 7 -6 10 -32 7 -34 -3
-39 0 -42 20 -2 15 2 22 12 22 9 0 16 5 16 10 0 13 -17 13 -25 0 -12 -19 -25
-10 -25 16 0 23 3 25 37 22 25 -2 38 2 41 12 8 24 24 30 83 30 58 0 109 -13
144 -37 18 -12 17 -13 -15 -7 -19 4 -39 11 -44 15 -18 16 -83 10 -109 -11 -14
-11 -34 -20 -46 -20 -14 0 -19 -5 -15 -15 6 -16 34 -21 34 -6 0 8 100 26 110
19 3 -2 4 -6 2 -10 -1 -5 2 -8 8 -8 5 0 10 5 10 10 0 6 44 10 113 10 91 0 120
4 150 19 35 18 36 20 21 36 -16 16 -14 16 32 9 27 -3 53 -13 57 -20 11 -20
214 -19 240 0 16 13 16 14 1 20 -14 5 -6 13 31 33 47 24 51 25 119 14 45 -7
76 -18 84 -29 10 -14 26 -16 80 -14 91 3 222 -28 222 -54 0 -12 -68 -44 -93
-44 -10 0 -17 5 -17 10 0 6 -7 10 -15 10 -8 0 -15 -4 -15 -10 0 -5 5 -10 11
-10 6 0 24 -13 40 -29 16 -16 29 -34 29 -40 0 -6 6 -11 14 -11 8 0 16 -7 20
-15 7 -20 36 -19 51 2 11 15 15 15 29 4 9 -7 14 -17 11 -21 -3 -5 4 -11 15
-15 20 -7 28 -25 10 -25 -5 0 -10 -7 -10 -15 0 -8 -7 -15 -15 -15 -8 0 -15 -3
-15 -7 0 -9 49 -33 67 -33 7 0 13 -4 13 -10 0 -5 11 -10 24 -10 14 0 37 -5 53
-11 22 -8 24 -12 13 -19 -11 -7 -6 -10 20 -11 70 -4 86 -6 128 -18 33 -9 47
-9 57 -1 11 9 23 9 50 0 20 -7 46 -9 58 -7 12 3 78 9 147 12 69 4 130 10 135
15 6 4 33 11 60 14 28 4 82 17 120 29 59 18 65 22 41 25 -22 3 -26 6 -15 13
12 7 11 9 -2 9 -9 0 -29 11 -45 25 -16 14 -35 25 -41 25 -7 0 -13 5 -13 10 0
6 -11 16 -25 22 -29 13 -33 43 -7 53 16 6 16 7 0 19 -10 7 -18 23 -18 35 0 15
-9 25 -30 32 -19 7 -30 18 -30 30 0 10 -4 19 -10 19 -5 0 -10 9 -10 20 0 11
-7 23 -15 26 -8 4 -15 17 -15 30 0 13 -9 33 -20 44 -21 21 -60 27 -60 10 0 -5
-7 -10 -15 -10 -8 0 -14 8 -13 18 3 41 -4 59 -30 74 -37 22 -112 14 -112 -12
0 -25 -18 -29 -81 -21 -50 7 -52 9 -29 19 l25 11 -26 0 c-28 1 -79 22 -79 33
0 11 31 16 185 27 275 20 451 24 474 9 23 -14 29 -47 9 -50 -7 -1 21 -4 62 -8
106 -10 280 -81 280 -114 0 -10 39 -46 50 -46 6 0 10 -7 10 -15 0 -8 11 -17
25 -21 28 -7 24 -24 -6 -24 -15 0 -19 -7 -19 -35 0 -22 -6 -38 -15 -41 -8 -4
-15 -17 -15 -30 0 -15 -6 -24 -15 -24 -11 0 -15 -11 -15 -40 0 -29 4 -40 15
-40 8 0 15 -4 15 -10 0 -10 80 -50 99 -50 6 0 11 -4 11 -10 0 -5 7 -10 15 -10
8 0 14 -5 12 -12 -1 -6 17 -20 40 -32 25 -12 43 -29 45 -41 2 -11 13 -24 24
-30 19 -9 9 -13 -60 -22 -115 -16 -136 -26 -136 -63 0 -20 5 -30 15 -30 51 0
-24 -84 -91 -102 -34 -9 -40 -14 -27 -19 17 -6 17 -7 -1 -15 -13 -5 -21 -3
-24 4 -5 16 -43 15 -65 -2 -16 -13 -16 -14 5 -19 12 -3 55 -2 97 3 41 6 83 7
93 4 10 -3 71 2 136 11 184 25 187 26 172 35 -12 8 -12 10 0 14 8 2 22 7 30 9
8 3 3 6 -12 6 -23 1 -28 6 -28 26 0 19 5 25 23 26 12 0 46 3 76 5 60 6 218
-11 269 -27 41 -13 116 -3 89 12 -39 22 0 41 41 20 53 -27 129 -40 116 -20 -8
13 204 4 290 -12 80 -15 106 -12 106 11 0 12 -8 21 -22 24 -24 5 -208 26 -228
26 -10 0 -9 4 0 15 11 13 5 15 -46 16 -56 2 -57 2 -19 9 39 7 39 7 7 9 -58 2
-103 41 -48 41 18 0 25 6 28 23 2 14 11 23 27 25 14 2 21 0 17 -6 -4 -6 17
-17 49 -27 44 -12 64 -13 96 -5 30 8 44 8 55 -1 8 -7 29 -9 49 -6 19 3 35 2
35 -4 0 -5 -7 -9 -16 -9 -8 0 -12 -4 -9 -10 3 -5 27 -11 53 -11 26 -1 37 -4
25 -6 -13 -2 -23 -9 -23 -15 0 -6 10 -8 23 -4 12 3 30 6 40 6 9 0 17 7 17 15
0 8 -5 15 -11 15 -6 0 -9 6 -6 14 3 8 1 17 -6 20 -7 2 15 5 47 5 55 1 58 0 40
-14 -17 -13 -17 -14 -1 -15 9 0 17 5 17 10 0 6 7 10 17 10 30 0 5 11 -44 20
l-48 8 50 1 c58 2 97 23 71 38 -12 7 -8 9 16 9 18 0 62 15 98 32 36 18 70 32
77 32 7 0 13 5 13 10 0 6 11 10 25 10 40 0 29 -16 -33 -47 -31 -16 -76 -42
-99 -56 -24 -15 -47 -27 -53 -27 -5 0 -10 -7 -10 -15 0 -10 10 -15 28 -15 32
0 60 -16 48 -27 -5 -4 -11 -2 -13 5 -6 16 -71 5 -92 -16 -13 -12 -5 -13 57 -9
79 5 92 1 61 -21 -15 -10 -24 -11 -32 -3 -6 6 -34 11 -62 10 l-50 -1 40 -13
40 -13 -33 -1 c-70 -2 -105 -51 -36 -51 35 0 41 19 6 21 -12 0 -9 3 7 10 17 7
27 6 32 -2 5 -9 16 -8 42 4 19 10 44 17 55 17 27 0 84 21 100 37 18 18 52 17
52 -2 0 -8 -7 -15 -15 -15 -8 0 -15 -3 -15 -8 0 -4 -18 -18 -40 -32 -22 -14
-40 -30 -40 -37 0 -7 -7 -13 -15 -13 -8 0 -15 -9 -15 -20 0 -34 21 -24 92 43
16 15 33 27 38 27 6 0 10 4 10 10 0 5 11 12 25 16 18 4 25 13 25 30 0 19 5 24
25 24 14 0 28 7 31 15 4 9 26 17 54 21 27 4 57 14 67 23 30 28 85 52 107 45
15 -4 17 -3 7 4 -14 10 11 15 157 28 50 5 72 3 72 -4 0 -8 16 -10 45 -7 25 3
65 7 91 10 30 3 43 1 39 -6 -5 -7 13 -8 56 -3 45 5 60 4 55 -5 -10 -15 30 -14
189 5 72 8 141 14 155 13 48 -4 500 13 532 21 42 9 -212 23 -297 16 -175 -14
-567 -18 -660 -7 -98 12 -132 16 -348 46 -59 9 -135 16 -167 16 -33 1 -57 5
-54 10 3 5 9 9 15 9 5 0 46 23 92 52 97 61 200 114 242 124 39 10 95 46 95 62
0 6 5 12 11 12 5 0 7 5 4 10 -3 6 -1 10 4 10 6 0 11 7 11 15 0 8 -7 15 -16 15
-11 0 -14 6 -9 20 5 15 2 20 -12 21 -10 0 -13 3 -6 6 7 2 13 11 13 18 0 7 -6
16 -13 18 -6 3 6 6 28 8 31 1 34 3 13 6 -16 2 -28 9 -28 14 0 5 -12 9 -27 10
l-28 1 30 14 30 15 -40 -4 c-26 -3 -45 0 -53 9 -10 11 -8 13 15 9 16 -2 45 -7
66 -10 37 -6 48 -18 25 -29 -7 -4 3 -4 22 -2 19 2 44 -1 55 -5 16 -8 14 -8 -7
-4 -16 3 -28 1 -28 -5 0 -5 12 -10 26 -10 16 0 23 -4 18 -12 -7 -11 25 -8 71
7 16 6 17 5 5 -4 -12 -8 -6 -11 25 -11 22 0 56 -5 75 -11 24 -8 156 -11 405
-9 203 1 371 3 373 4 5 6 -30 66 -39 66 -5 0 -9 7 -9 15 0 8 -7 15 -15 15 -8
0 -15 6 -15 14 0 8 -7 17 -16 20 -8 3 -13 10 -9 16 3 5 -8 23 -25 40 -16 16
-30 36 -30 45 0 8 -7 15 -15 15 -8 0 -15 9 -15 20 0 11 -4 20 -10 20 -5 0 -10
9 -10 20 0 11 -7 20 -15 20 -8 0 -15 7 -15 15 0 9 -7 18 -15 21 -8 4 -15 13
-15 20 0 8 -7 17 -15 20 -8 4 -15 12 -15 20 0 8 -4 14 -10 14 -5 0 -10 9 -10
20 0 11 -7 20 -15 20 -8 0 -15 9 -15 19 0 10 -6 21 -13 24 -8 3 -22 21 -31 41
-9 20 -21 36 -26 36 -6 0 -10 9 -10 20 0 11 -7 20 -15 20 -8 0 -15 7 -15 15 0
8 -4 15 -10 15 -5 0 -19 20 -30 45 -11 25 -25 45 -30 45 -6 0 -10 7 -10 15 0
8 -7 15 -15 15 -8 0 -15 9 -15 19 0 10 -7 21 -15 25 -8 3 -15 12 -15 21 0 8
-4 15 -10 15 -5 0 -10 9 -10 20 0 11 -5 20 -10 20 -6 0 -15 11 -20 25 -5 14
-14 25 -20 25 -5 0 -10 7 -10 15 0 8 -4 15 -10 15 -5 0 -10 7 -10 15 0 9 -7
18 -15 21 -8 4 -15 12 -15 20 0 8 -5 14 -10 14 -6 0 -15 11 -20 25 -5 14 -14
25 -20 25 -5 0 -10 7 -10 15 0 8 -4 15 -10 15 -5 0 -10 9 -10 20 0 11 -7 20
-15 20 -8 0 -15 7 -15 15 0 8 -5 15 -10 15 -6 0 -15 11 -20 25 -5 14 -14 25
-19 25 -6 0 -8 7 -5 15 4 8 -1 17 -10 21 -9 3 -16 13 -16 20 0 8 -7 17 -15 20
-8 4 -15 15 -15 25 0 10 -7 19 -15 19 -8 0 -15 7 -15 15 0 8 -4 15 -10 15 -5
0 -10 11 -10 25 0 16 -6 25 -15 25 -8 0 -15 7 -15 15 0 9 -7 18 -15 21 -8 4
-15 15 -15 25 0 10 -7 19 -15 19 -8 0 -15 9 -15 20 0 11 -4 20 -10 20 -5 0
-10 7 -10 15 0 8 -7 15 -15 15 -8 0 -15 9 -15 19 0 10 -7 21 -15 25 -8 3 -15
14 -15 24 0 17 14 20 118 31 64 7 155 16 202 22 47 5 153 14 235 19 83 6 188
14 235 20 47 5 150 14 230 20 80 7 235 21 345 32 110 11 254 23 320 28 66 5
192 16 280 25 88 8 216 20 285 25 69 5 212 18 319 29 106 12 196 19 200 17 3
-1 51 2 106 9 84 10 -41 13 -805 14 -529 0 -949 -3 -1010 -9 -58 -5 -145 -12
-195 -15 -49 -3 -124 -9 -165 -14 -72 -10 -183 -20 -450 -41 -69 -6 -168 -15
-220 -20 -52 -6 -160 -15 -240 -20 -80 -6 -230 -19 -335 -30 -238 -25 -375
-27 -375 -5 0 9 -7 18 -15 21 -8 4 -15 12 -15 20 0 8 -7 14 -15 14 -8 0 -15 6
-15 14 0 8 -7 17 -16 20 -9 3 -14 11 -12 18 2 6 -4 20 -14 30 -17 17 -65 18
-995 18 -646 0 -973 -4 -963 -10 13 -9 13 -11 0 -19 -8 -6 -11 -14 -6 -18 5
-4 11 -2 13 5 7 17 33 15 33 -3 0 -9 7 -18 15 -21 8 -4 15 -15 15 -25 0 -11
11 -24 25 -31 14 -6 25 -17 25 -25 0 -7 7 -16 15 -19 8 -4 15 -12 15 -20 0 -8
7 -14 15 -14 8 0 15 -7 15 -15 0 -8 6 -15 13 -15 9 0 9 -2 -1 -8 -9 -6 -5 -12
13 -22 14 -7 25 -17 25 -22 0 -4 7 -8 15 -8 8 0 15 -6 15 -14 0 -8 12 -18 28
-24 20 -6 -12 -10 -125 -16 -161 -7 -203 -3 -203 20 0 8 -4 14 -10 14 -10 0
-45 60 -42 72 1 3 -12 12 -28 20 -17 7 -30 21 -30 30 0 10 -4 18 -9 18 -11 0
-41 56 -41 77 0 7 -5 13 -10 13 -6 0 -15 11 -20 24 -5 13 -19 27 -31 31 -17 6
-19 9 -8 16 9 5 -17 9 -68 9 -64 0 -83 -3 -83 -14 0 -8 7 -17 16 -20 8 -3 12
-10 9 -16 -3 -6 1 -13 9 -16 9 -3 16 -13 16 -20 0 -8 7 -17 15 -20 8 -4 15
-15 15 -25 0 -10 7 -19 15 -19 8 0 15 -7 15 -15 0 -8 5 -15 10 -15 6 0 10 -7
10 -15 0 -9 7 -18 15 -21 8 -4 15 -12 15 -20 0 -8 7 -14 15 -14 8 0 15 -7 15
-14 0 -8 11 -27 25 -42 34 -37 32 -60 -6 -68 -17 -3 -37 -6 -44 -6 -16 0 -55
34 -55 49 0 6 -5 11 -10 11 -6 0 -15 11 -20 25 -5 14 -14 25 -20 25 -5 0 -10
7 -10 15 0 8 -4 15 -10 15 -5 0 -10 7 -10 15 0 8 -7 15 -15 15 -8 0 -15 7 -15
15 0 9 -13 29 -30 45 -16 16 -30 34 -30 40 0 5 -4 10 -10 10 -5 0 -10 9 -10
20 0 11 -7 20 -15 20 -8 0 -15 6 -15 13 0 7 -10 21 -21 31 -22 18 -89 19 -149
1 -19 -5 -22 -4 -10 4 11 8 -26 11 -135 10 -113 0 -144 -3 -125 -11 14 -6 60
-8 107 -5 71 5 82 4 85 -11 3 -14 16 -16 94 -13 91 3 123 -7 87 -27 -14 -8
-10 -12 25 -23 23 -7 42 -18 42 -25 0 -6 7 -14 15 -18 8 -3 15 -12 15 -21 0
-8 5 -15 10 -15 6 0 10 -7 10 -15 0 -9 7 -18 15 -21 8 -4 15 -15 15 -25 0 -10
5 -19 10 -19 16 0 51 -40 45 -50 -4 -6 1 -13 9 -16 9 -3 16 -12 16 -20 0 -8 7
-14 15 -14 8 0 15 -9 15 -20 0 -16 -7 -20 -32 -20 -18 0 -105 -7 -193 -15 -88
-8 -250 -22 -360 -30 -359 -28 -458 -36 -620 -50 -200 -19 -197 -19 -223 5
-12 11 -26 20 -32 20 -5 0 -10 6 -10 13 0 35 -60 56 -117 41 -26 -7 -32 -44
-8 -44 8 0 15 -5 15 -11 0 -7 8 -18 18 -25 32 -24 -1 -33 -168 -44 -91 -6
-201 -15 -245 -20 -44 -5 -154 -14 -245 -20 -91 -6 -228 -17 -305 -25 -310
-31 -298 -31 -333 4 -18 16 -32 35 -32 41 0 14 -25 40 -39 40 -6 0 -11 7 -11
15 0 9 -7 18 -15 21 -8 4 -15 15 -15 25 0 10 -7 19 -15 19 -8 0 -15 7 -15 15
0 8 -4 15 -10 15 -5 0 -10 9 -10 20 0 11 -7 20 -15 20 -8 0 -15 7 -15 15 0 9
-7 18 -15 21 -8 4 -15 15 -15 25 0 10 -7 19 -15 19 -8 0 -15 8 -15 18 0 9 -11
26 -25 36 -45 34 -33 53 40 61 36 3 67 11 70 15 6 10 -30 50 -45 50 -5 0 -10
9 -10 20 0 12 -14 34 -30 50 -30 30 -32 30 -138 29 -59 -1 -99 -3 -89 -6z
m5190 -565 c31 -15 35 -27 10 -29 -79 -7 -85 -8 -78 -19 3 -5 -6 -12 -20 -16
-14 -3 -25 -12 -25 -20 0 -16 -55 -20 -65 -4 -3 6 -24 10 -46 10 -24 0 -38 4
-34 10 4 6 -7 10 -24 10 -51 0 -35 18 27 31 31 7 63 17 69 22 15 11 103 0 103
-14 0 -5 7 -9 15 -9 8 0 15 9 15 20 0 23 15 25 53 8z m-430 -528 c9 0 17 -7
17 -15 0 -8 8 -15 18 -15 14 0 15 -2 2 -10 -12 -8 -12 -10 -1 -10 25 0 2 -13
-36 -20 -35 -7 -34 -8 20 -9 31 0 57 -5 57 -11 0 -5 11 -10 25 -10 13 0 35
-11 48 -24 l24 -24 -36 4 c-31 3 -33 2 -11 -5 25 -10 -170 -5 -237 5 -17 2
-34 1 -37 -4 -3 -5 -56 -7 -118 -5 -62 3 -128 5 -145 6 -40 1 -42 10 -5 24 25
10 26 11 4 12 -14 1 -21 5 -16 12 3 6 19 9 35 5 16 -3 29 -1 29 4 0 6 7 10 15
10 8 0 15 5 15 10 0 6 10 10 23 9 42 -4 134 4 102 8 -16 3 -38 11 -50 19 -19
15 -19 15 7 9 25 -6 81 2 163 25 17 5 39 7 50 4 11 -2 28 -4 38 -4z m-436
-324 c15 5 16 4 3 -5 -16 -12 -10 -14 33 -11 15 1 27 -3 27 -9 0 -6 7 -11 16
-11 28 0 -5 -30 -35 -31 l-26 -2 28 -4 c15 -2 27 -11 27 -18 0 -14 -21 -20
-122 -35 l-53 -8 58 -1 c36 -1 56 -5 52 -11 -8 -13 118 -13 163 -1 20 6 30 6
27 0 -12 -18 32 -9 50 11 14 15 30 20 69 19 36 0 45 -3 31 -8 -17 -7 -15 -9
14 -16 22 -5 29 -10 21 -15 -7 -4 -9 -13 -6 -19 4 -6 4 -11 -1 -10 -4 1 -14 1
-21 0 -21 -2 -3 -21 21 -22 12 0 16 -3 9 -6 -6 -2 -10 -8 -8 -11 2 -4 -25 -8
-60 -9 -39 -1 -62 2 -59 7 10 16 -69 11 -93 -5 -12 -9 -43 -17 -69 -19 -26 -1
-49 -8 -51 -14 -5 -15 -68 -16 -77 -2 -3 6 -18 10 -33 9 -24 0 -25 -1 -7 -9
13 -6 -18 -9 -85 -9 -67 0 -98 3 -85 9 11 5 14 9 8 9 -21 1 -15 19 9 27 l22 7
-22 17 c-24 20 -29 45 -9 54 6 3 0 3 -14 0 -15 -3 -30 -1 -33 5 -4 6 -28 12
-54 12 -26 1 -37 4 -24 6 24 5 29 18 10 26 -7 3 -2 6 12 7 25 1 25 1 3 10 -13
5 -23 16 -23 24 0 8 -8 20 -17 25 -16 9 -16 12 -3 21 19 13 67 13 75 0 7 -11
185 -9 185 3 0 4 -6 7 -12 8 -7 0 -4 4 7 8 10 4 38 4 62 0 24 -5 51 -6 60 -3z
m748 -91 c12 -14 26 -25 31 -25 6 0 21 -9 34 -20 13 -11 30 -20 39 -20 11 -1
9 -4 -7 -13 -12 -7 -20 -16 -16 -20 19 -19 -127 -28 -210 -13 -39 7 -47 6 -41
-4 6 -10 1 -12 -25 -6 -52 10 -56 21 -10 28 45 6 65 47 35 71 -6 5 -1 6 10 3
11 -3 36 -1 55 3 l35 9 -45 2 -45 2 35 10 c19 5 39 14 45 19 15 15 58 1 80
-26z m-1799 -483 c14 -8 9 -14 -30 -37 l-47 -28 -91 13 c-83 12 -114 27 -94
47 22 22 225 26 262 5z m-232 -62 c26 -10 38 -50 15 -50 -7 0 -17 -8 -24 -17
-15 -20 -153 -34 -141 -14 5 7 -2 11 -18 11 -14 0 -26 5 -26 10 0 6 -7 10 -15
10 -29 0 -16 39 18 55 35 16 144 13 191 -5z m252 -51 c108 -33 119 -51 53 -88
-35 -20 -46 -22 -78 -13 -20 6 -55 13 -78 17 -24 4 -43 11 -43 16 0 5 -7 9
-15 9 -29 0 -16 44 18 62 43 22 63 22 143 -3z m-128 -110 c48 -17 44 -52 -8
-73 -50 -20 -66 -20 -140 1 -68 18 -80 36 -48 69 21 21 30 23 93 19 39 -2 85
-9 103 -16z m270 -50 c34 -11 62 -25 62 -30 0 -5 7 -9 15 -9 8 0 15 -4 15 -10
0 -5 -6 -10 -14 -10 -8 0 -16 -4 -18 -8 -14 -34 -128 -71 -128 -42 0 6 -11 10
-24 10 -23 0 -122 39 -101 40 6 0 3 4 -5 10 -16 10 -18 8 35 43 48 32 81 34
163 6z m-209 -104 c23 -8 48 -12 56 -9 8 3 24 -4 36 -15 l23 -21 -22 -21 c-44
-40 -76 -44 -168 -18 -76 21 -84 26 -84 48 0 13 8 30 18 37 23 18 90 17 141
-1z"/>
<path d="M1840 2530 c12 -9 5 -10 -29 -6 -30 3 -40 1 -30 -5 10 -6 2 -9 -26
-9 -22 0 -47 -5 -55 -10 -13 -9 -13 -11 0 -20 13 -9 13 -10 0 -10 -8 -1 -2 -8
14 -17 25 -13 35 -14 64 -3 23 8 76 11 160 9 94 -3 126 -1 129 9 3 7 -5 12
-21 12 -14 0 -26 4 -26 8 0 10 -90 38 -150 47 -35 5 -42 4 -30 -5z"/>
<path d="M13970 2495 c0 -8 -4 -15 -10 -15 -5 0 -10 -16 -10 -35 0 -22 -6 -38
-15 -41 -8 -4 -15 -14 -15 -24 0 -9 -13 -27 -30 -40 -33 -25 -38 -45 -15 -54
26 -10 16 -25 -20 -32 -19 -3 -38 -10 -41 -15 -3 -5 -35 -9 -71 -9 -74 0 -305
-37 -313 -50 -3 -4 -25 -13 -49 -20 -40 -11 -79 -28 -91 -40 -16 -16 -261
-127 -309 -140 -22 -6 -43 -14 -45 -19 -3 -5 -20 -11 -37 -15 -17 -3 -45 -13
-62 -21 -30 -13 -67 -27 -252 -90 -38 -13 -87 -31 -107 -39 -21 -9 -48 -16
-62 -16 -13 0 -26 -4 -28 -8 -4 -10 -430 -140 -508 -156 -39 -8 -56 -16 -58
-28 -2 -11 3 -18 11 -18 9 0 17 -4 19 -8 6 -15 64 -51 94 -58 16 -4 34 -10 39
-14 6 -4 28 -13 50 -20 22 -7 45 -18 50 -24 6 -7 50 -19 99 -27 52 -8 91 -19
94 -26 2 -8 -6 -13 -22 -13 -22 0 -26 -4 -26 -30 0 -17 -7 -33 -17 -39 -15 -9
-13 -11 12 -12 24 -1 26 -3 7 -6 -12 -2 -20 -8 -17 -13 3 -4 -7 -11 -20 -14
-14 -4 -23 -11 -20 -16 3 -5 -4 -14 -15 -20 -13 -7 -19 -18 -16 -26 3 -8 -1
-14 -9 -14 -8 0 -15 -4 -15 -10 0 -5 -5 -10 -11 -10 -5 0 -28 -15 -51 -32 -40
-33 -41 -33 -162 -35 -79 -2 -114 0 -101 6 19 9 19 10 -2 10 -12 1 -29 -2 -39
-6 -16 -6 -16 -7 2 -13 12 -5 -1 -9 -41 -14 -33 -4 -80 -11 -105 -16 -115 -22
-219 -32 -237 -21 -17 10 -16 10 4 11 12 0 24 4 28 9 3 5 18 12 34 16 16 3 32
13 35 21 3 8 15 14 26 14 15 0 20 7 20 25 0 22 4 24 35 23 36 -1 60 11 37 19
-6 3 -10 9 -6 14 3 5 -9 9 -26 9 -23 0 -33 6 -40 25 -5 14 -14 25 -20 25 -16
0 -12 40 5 46 8 4 15 11 15 18 0 6 14 17 30 24 17 8 30 21 30 32 0 22 17 36
53 45 17 5 27 14 27 26 0 10 3 19 8 19 4 0 23 14 42 30 24 21 30 30 18 30 -9
0 -24 7 -33 16 -14 15 -23 15 -68 5 -29 -6 -94 -10 -144 -8 -85 2 -113 -3 -80
-16 6 -3 -4 -6 -23 -6 -19 -1 -55 -8 -80 -15 l-45 -15 39 0 c71 -2 29 -13 -56
-16 -130 -4 -128 -3 -90 -22 26 -13 37 -14 55 -4 12 6 63 13 112 15 50 1 82 1
72 -1 -9 -3 -15 -9 -12 -14 4 -5 -5 -9 -19 -9 -14 0 -26 5 -26 10 0 14 -23 12
-56 -5 -16 -8 -40 -15 -53 -15 -18 0 -22 -3 -14 -11 12 -12 170 6 216 25 32
13 35 26 7 26 -11 0 -20 5 -20 10 0 6 28 9 68 9 56 -2 61 -3 27 -8 -35 -6 -37
-7 -16 -13 l24 -7 -31 -29 c-17 -16 -28 -32 -25 -36 3 -3 -10 -6 -30 -6 -21 0
-37 5 -37 11 0 7 -45 8 -150 3 -132 -6 -150 -5 -150 9 0 8 6 17 13 20 6 2 9 8
5 12 -5 5 -19 3 -33 -3 -33 -15 -62 -15 -71 -1 -3 6 0 15 7 20 11 7 9 9 -6 9
-11 0 -26 9 -32 19 -11 17 -9 20 10 24 12 2 -3 6 -33 7 l-55 3 40 7 c30 5 33
8 13 9 -15 0 -30 6 -33 11 -3 6 -33 10 -66 10 -54 0 -77 11 -46 23 6 3 -2 6
-20 6 -19 1 -47 -9 -69 -24 -20 -14 -43 -25 -50 -25 -8 0 -14 -4 -14 -10 0 -5
-12 -10 -27 -10 l-28 1 25 14 c14 8 19 14 13 15 -18 0 -16 20 1 20 8 0 16 5
18 12 2 6 36 14 79 18 57 6 64 7 27 9 -51 1 -71 17 -45 36 14 10 14 12 -2 22
-24 15 -122 28 -101 14 11 -8 12 -11 2 -11 -7 0 -11 -3 -9 -7 5 -7 -115 -10
-138 -3 -5 1 4 6 20 11 25 7 23 7 -12 4 -33 -4 -43 -2 -43 9 0 8 -10 16 -22
18 -14 2 -24 11 -26 23 -2 14 -16 24 -42 33 -55 17 -70 15 -70 -8 0 -15 7 -20
25 -20 20 0 25 -5 25 -25 0 -16 6 -25 15 -25 8 0 15 -6 15 -13 0 -8 11 -20 25
-27 16 -8 25 -22 25 -37 0 -21 -4 -23 -49 -23 -62 0 -81 -7 -81 -31 0 -10 -4
-19 -10 -19 -17 0 -70 -58 -57 -64 9 -3 9 -5 0 -5 -15 -1 -18 -61 -3 -61 5 0
0 -11 -12 -25 -12 -14 -30 -25 -40 -25 -14 0 -18 8 -18 40 0 22 -4 40 -10 40
-5 0 -10 9 -10 20 0 11 -6 20 -14 20 -8 0 -17 8 -20 17 -5 13 -9 14 -19 4 -9
-9 -9 -14 3 -21 10 -7 11 -10 3 -10 -7 0 -13 -7 -13 -15 0 -8 -7 -15 -15 -15
-8 0 -15 5 -15 10 0 6 -12 10 -27 10 -34 0 -62 17 -48 28 14 10 17 32 5 32 -6
0 -10 18 -10 40 0 22 -3 40 -8 40 -10 0 -42 -38 -42 -50 0 -6 -13 -10 -30 -10
-16 0 -30 5 -30 10 0 6 -11 10 -25 10 -16 0 -25 6 -25 15 0 8 5 15 10 15 6 0
10 4 10 9 0 5 -22 12 -50 16 -27 4 -50 11 -50 16 0 5 -5 9 -11 9 -6 0 -17 6
-25 14 -14 15 -54 11 -54 -5 0 -6 7 -12 15 -15 8 -4 15 -15 15 -25 0 -10 4
-19 10 -19 15 0 70 -58 70 -75 0 -8 5 -15 10 -15 10 0 50 -36 50 -45 0 -11 41
-45 55 -45 9 0 18 -7 21 -15 4 -8 12 -15 20 -15 8 0 14 -4 14 -8 0 -5 11 -15
25 -22 14 -7 25 -19 25 -27 0 -8 11 -13 28 -13 20 0 23 -3 12 -10 -8 -5 -11
-12 -7 -16 3 -4 14 -1 23 6 13 12 17 11 24 -1 8 -12 -8 -15 -98 -20 -94 -4
-98 -5 -34 -7 52 -1 71 -5 66 -13 -5 -9 8 -10 45 -7 31 3 47 2 39 -3 -7 -5 -8
-9 -3 -10 6 -1 -6 -5 -25 -9 -30 -7 -28 -7 13 -4 29 2 45 -1 42 -6 -4 -6 -13
-10 -21 -10 -8 0 -14 -5 -14 -10 0 -7 19 -8 53 -4 35 4 49 3 42 -4 -5 -5 -19
-12 -30 -15 -11 -3 -2 -5 20 -6 22 -1 54 -8 70 -16 l30 -15 -41 6 c-25 3 -45
1 -49 -5 -4 -7 9 -12 37 -13 l43 -1 -50 -7 c-35 -5 -41 -7 -20 -9 27 -1 28 -3
13 -15 -22 -16 -23 -26 -3 -26 8 0 15 -4 15 -9 0 -10 -22 -16 -92 -26 -31 -5
-48 -12 -48 -21 0 -14 -17 -19 -57 -15 -13 1 -23 -3 -23 -9 0 -18 -37 -11 -51
10 -10 14 -21 18 -36 14 -13 -4 -23 -10 -23 -15 0 -12 38 -49 50 -49 6 0 10
-15 10 -34 0 -34 -1 -34 -52 -40 -29 -4 -98 -14 -153 -22 -55 -8 -145 -21
-200 -29 -124 -18 -314 -52 -335 -61 -15 -5 -60 -15 -245 -49 -76 -14 -102
-15 -170 -5 -44 7 -91 10 -105 7 -17 -3 -11 -5 18 -6 23 0 42 -6 42 -12 0 -7
53 -10 174 -7 96 1 169 6 163 10 -7 4 4 8 23 8 20 0 41 5 48 12 9 9 15 8 27
-8 14 -18 16 -18 26 -1 5 9 19 17 30 17 11 0 28 4 37 9 9 5 37 12 62 16 39 7
43 6 32 -8 -10 -12 -10 -16 0 -20 7 -3 0 -6 -15 -6 -16 -1 -26 -5 -22 -11 4
-6 -8 -10 -29 -10 -34 0 -35 -1 -38 -42 -3 -39 -6 -43 -30 -46 -22 -3 -28 -9
-28 -28 0 -13 6 -24 13 -25 6 0 0 -5 -15 -11 -31 -11 -37 -28 -11 -28 10 0
-11 -14 -46 -31 -36 -18 -74 -40 -85 -50 -12 -12 -34 -19 -58 -19 -37 0 -38
-1 -38 -35 0 -21 5 -35 13 -36 6 -1 1 -5 -13 -10 -22 -8 -21 -8 7 -4 18 2 35
0 38 -5 3 -6 0 -10 -7 -10 -7 0 -2 -7 10 -16 22 -15 62 -11 62 7 0 5 18 9 40
9 41 0 53 13 23 24 -15 6 -15 8 -3 17 11 8 0 9 -38 5 -39 -4 -52 -2 -49 7 2 7
23 13 48 15 26 2 49 10 57 20 9 12 26 16 68 14 36 -2 60 2 69 12 8 7 12 16 9
19 -10 10 42 54 95 80 35 17 64 41 80 65 14 21 41 53 59 70 17 17 32 36 32 41
0 5 6 12 13 15 10 5 10 7 0 12 -21 9 -15 24 10 24 13 0 32 8 43 19 13 11 41
20 76 23 34 3 63 11 73 21 11 12 25 15 43 11 36 -9 40 -14 12 -14 l-23 0 27
-25 c24 -22 25 -25 8 -34 -14 -8 -14 -11 -2 -12 8 0 4 -4 -9 -8 -28 -7 -41
-31 -18 -31 9 0 17 5 19 12 6 17 28 0 28 -22 0 -14 -11 -22 -42 -29 l-43 -11
38 5 c29 3 39 0 44 -13 4 -9 11 -20 17 -24 5 -4 -3 -10 -20 -13 -50 -12 -50
-13 1 -13 46 0 126 14 98 17 -15 1 -18 41 -3 41 6 0 10 6 10 13 0 8 12 20 28
28 15 8 32 20 38 28 7 8 21 12 37 9 15 -3 24 -2 22 2 -5 8 18 20 37 20 7 0 6
-5 -1 -14 -9 -11 -9 -15 1 -19 10 -4 10 -6 0 -6 -20 -1 -45 -28 -30 -33 10 -4
-43 -68 -57 -68 -3 0 -14 -9 -26 -21 -16 -16 -28 -19 -57 -14 -26 4 -43 1 -57
-10 -19 -16 -18 -16 23 -12 23 3 42 1 42 -4 0 -5 -24 -10 -52 -10 l-53 -2 40
-7 40 -7 -44 -2 c-54 -1 -122 -21 -115 -32 7 -12 52 -11 56 1 2 5 17 11 33 13
17 3 21 2 11 0 -16 -4 -17 -7 -5 -14 10 -6 7 -9 -13 -9 -18 0 -28 -5 -28 -15
0 -10 -10 -15 -28 -15 -15 0 -32 -4 -37 -9 -6 -5 -21 -11 -35 -14 -27 -5 61 1
120 8 19 2 26 2 15 -1 -11 -3 -24 -10 -30 -15 -5 -5 -40 -9 -78 -9 -37 0 -66
-4 -63 -9 3 -5 27 -6 52 -3 32 3 45 2 40 -6 -3 -6 3 -12 16 -15 l23 -4 -23 -8
c-13 -4 -21 -13 -19 -19 4 -12 -93 -106 -110 -106 -5 0 -25 -16 -46 -34 -21
-19 -52 -38 -69 -41 -18 -4 -26 -10 -19 -14 11 -7 -57 -45 -123 -71 -15 -5
-26 -14 -26 -19 0 -5 -10 -11 -22 -14 -13 -4 -32 -13 -43 -21 -18 -14 -15 -15
51 -16 57 0 76 4 94 20 13 11 31 20 42 20 10 0 18 5 18 10 0 6 5 10 11 10 7 0
19 8 28 19 9 10 27 22 40 26 13 4 37 19 52 34 47 43 69 61 74 61 3 0 18 12 34
27 16 16 47 44 70 63 22 19 41 39 41 44 0 14 117 124 140 131 11 4 18 11 15
16 -7 11 53 49 78 49 22 0 24 -48 2 -56 -8 -4 -15 -14 -15 -24 0 -9 -11 -26
-25 -36 -14 -10 -25 -22 -25 -27 0 -4 -13 -21 -30 -37 -16 -16 -30 -33 -30
-38 0 -5 -11 -15 -25 -22 -14 -7 -25 -17 -25 -22 0 -4 -7 -8 -15 -8 -8 0 -15
-4 -15 -10 0 -5 -5 -10 -11 -10 -6 0 -17 -7 -25 -15 -12 -12 -12 -15 -2 -15 7
0 -4 -11 -24 -24 -27 -16 -34 -26 -27 -33 8 -8 2 -13 -20 -18 -17 -4 -31 -12
-31 -20 0 -7 -11 -16 -25 -19 -14 -4 -25 -11 -25 -16 0 -15 -35 -47 -59 -55
-51 -16 -13 -25 102 -24 67 0 116 3 109 6 -22 9 -2 23 34 23 24 0 34 5 34 15
0 8 5 15 10 15 6 0 10 9 10 19 0 11 5 23 11 27 8 4 7 9 -2 15 -10 6 -6 9 13 9
16 0 31 8 37 19 6 10 24 21 41 25 17 3 29 10 26 15 -4 5 0 11 6 14 8 3 3 9
-12 15 -22 9 -19 11 28 11 49 1 52 3 52 26 0 28 21 55 58 74 12 6 22 18 22 26
0 8 9 15 20 15 13 0 18 5 14 15 -4 8 -1 15 5 15 9 0 9 5 1 20 -10 19 -9 20 17
14 15 -4 29 -8 31 -9 7 -6 -12 -34 -26 -38 -14 -4 -13 -5 2 -6 19 -1 19 -1 1
-15 -22 -16 -25 -84 -3 -97 9 -6 7 -9 -9 -9 -25 0 -39 -15 -22 -26 8 -4 8 -8
0 -13 -6 -4 -11 -21 -13 -39 -1 -18 -6 -32 -10 -32 -4 0 -8 -9 -8 -20 0 -11
-7 -20 -15 -20 -8 0 -15 -7 -15 -15 0 -9 -7 -18 -15 -21 -8 -4 -15 -15 -15
-25 0 -12 -7 -19 -19 -19 -10 0 -21 -7 -25 -15 -5 -13 12 -15 114 -15 102 0
119 2 114 15 -4 10 0 15 11 15 9 0 13 5 10 10 -3 6 -3 10 2 10 4 0 9 16 11 36
1 21 10 43 20 50 14 11 14 13 2 14 -12 0 -12 2 -2 9 8 5 14 28 14 56 1 38 5
48 22 55 21 9 21 9 -1 9 -22 1 -34 21 -13 21 14 0 12 27 -2 33 -9 3 -7 9 6 19
17 13 17 15 2 21 -24 9 -20 24 9 31 14 4 25 11 25 16 0 6 7 10 15 10 8 0 15
-6 15 -13 0 -8 11 -20 25 -27 14 -7 25 -22 25 -32 0 -12 11 -23 30 -29 18 -7
30 -18 30 -29 0 -9 11 -26 25 -36 17 -12 21 -21 13 -26 -8 -4 -3 -10 15 -17
15 -6 27 -18 27 -26 0 -9 7 -18 15 -21 8 -4 15 -12 15 -20 0 -8 5 -14 11 -14
5 0 8 -4 4 -9 -3 -5 5 -17 17 -25 12 -9 17 -16 10 -16 -10 0 -10 -5 -2 -20 6
-11 17 -20 25 -20 8 0 15 -5 15 -11 0 -31 35 -38 180 -38 80 0 139 3 133 6 -7
2 -13 13 -13 24 0 10 -7 19 -15 19 -9 0 -15 9 -15 25 0 16 -6 25 -15 25 -8 0
-15 9 -15 20 0 11 -4 20 -10 20 -5 0 -10 9 -10 19 0 10 -7 21 -15 25 -8 3 -15
12 -15 21 0 8 -5 15 -10 15 -6 0 -15 11 -20 25 -5 14 -15 25 -21 25 -7 0 -9 9
-6 21 3 12 0 22 -9 26 -8 3 -14 11 -14 19 0 8 -7 14 -15 14 -8 0 -15 9 -15 19
0 10 -7 21 -15 25 -8 3 -15 12 -15 21 0 8 -4 15 -10 15 -5 0 -10 7 -10 15 0 9
-7 18 -15 21 -8 4 -15 15 -15 25 0 11 -7 22 -15 25 -8 4 -15 15 -15 25 0 10
-7 19 -15 19 -8 0 -15 9 -15 20 0 11 -4 20 -10 20 -5 0 -10 9 -10 20 0 11 -7
23 -15 26 -8 4 -15 14 -15 24 0 11 -11 21 -27 25 l-28 8 25 7 c14 5 106 9 205
9 99 1 314 6 478 11 164 5 305 6 312 3 21 -8 10 -19 -25 -26 -38 -8 -210 -84
-210 -93 0 -1 17 -13 38 -25 20 -12 54 -40 74 -61 21 -21 40 -38 42 -38 7 0
40 -27 76 -62 16 -16 33 -28 39 -28 6 0 11 -9 11 -19 0 -10 7 -21 15 -25 8 -3
12 -12 9 -21 -3 -8 -1 -15 5 -15 6 0 16 -11 21 -25 5 -14 14 -25 20 -25 5 0
10 -22 10 -49 0 -34 4 -51 15 -55 12 -4 15 -24 15 -86 l0 -80 515 0 c508 0
515 0 515 20 0 11 7 20 15 20 9 0 15 9 15 24 0 13 7 26 15 30 8 3 15 12 15 20
0 26 50 35 72 13 48 -48 207 -127 255 -127 26 0 24 2 -16 20 -24 11 -49 20
-57 20 -8 0 -14 5 -14 10 0 6 -7 10 -15 10 -8 0 -20 9 -27 20 -7 11 -16 20
-21 20 -16 0 -79 69 -72 79 3 6 -1 14 -9 17 -27 10 -20 62 9 76 14 6 25 15 25
20 0 4 7 8 15 8 10 0 15 10 15 28 0 28 21 43 83 58 15 3 27 10 27 15 0 5 7 9
15 9 8 0 15 4 15 9 0 5 12 13 28 19 32 12 72 45 72 61 0 14 36 51 50 51 6 0
10 6 10 13 0 16 29 33 90 52 53 16 30 18 -58 5 -37 -5 -73 -5 -85 0 -12 5 -17
9 -12 10 6 0 4 4 -3 9 -8 4 40 11 113 14 122 6 179 19 145 31 -78 29 -114 37
-186 43 -74 5 -84 4 -84 -11 0 -21 -16 -20 -41 3 -27 25 -62 29 -324 37 -166
4 -258 2 -375 -9 -178 -18 -483 -21 -473 -4 4 7 -15 8 -58 5 -40 -4 -55 -3
-39 2 15 5 -11 7 -70 5 -76 -3 -86 -2 -50 5 25 5 117 9 205 9 341 0 405 2 350
12 -27 5 -86 9 -130 7 -110 -2 -249 1 -244 7 3 2 37 5 77 7 40 1 72 5 72 8 0
3 30 5 68 3 37 -2 61 0 54 3 -6 3 -10 10 -6 15 3 5 -7 9 -23 9 -15 0 -33 4
-40 8 -6 4 35 6 90 4 56 -1 138 2 182 7 71 8 63 9 -70 6 -84 -2 -130 0 -105 4
36 5 40 8 20 12 -14 2 11 5 56 5 77 1 126 10 238 40 27 8 62 14 77 14 15 0 37
6 50 13 41 22 80 50 75 54 -2 2 -39 -7 -83 -20 -43 -14 -122 -31 -175 -38 -54
-7 -93 -16 -87 -19 5 -4 -59 -12 -143 -18 -84 -5 -154 -9 -155 -8 -2 1 36 10
84 19 48 10 92 22 97 27 6 6 22 10 37 10 15 0 43 7 63 15 40 17 187 47 194 40
3 -2 -14 -7 -37 -11 -22 -4 -41 -10 -41 -14 0 -9 53 -4 135 11 175 32 210 40
219 50 13 13 -45 8 -164 -15 -41 -8 -76 -13 -78 -11 -2 2 36 15 84 30 49 15
97 33 108 41 19 13 17 14 -27 14 -26 0 -55 -4 -65 -9 -26 -14 -173 -49 -207
-49 -16 0 -31 -5 -33 -11 -2 -6 -15 -11 -30 -11 -41 0 -195 -22 -217 -30 -11
-5 -40 -11 -65 -15 -25 -4 -70 -11 -100 -16 -30 -5 -77 -11 -105 -14 -50 -5
-50 -5 -17 8 19 7 38 20 43 29 5 10 17 14 29 11 14 -4 20 0 20 10 0 9 13 18
33 22 32 6 41 9 109 39 20 9 45 16 56 16 12 0 24 5 27 10 3 6 13 10 22 10 21
0 83 30 83 41 0 14 -17 11 -62 -11 -23 -11 -70 -23 -105 -26 -56 -6 -63 -5
-57 10 3 9 17 16 33 16 14 0 38 7 53 14 15 8 53 18 84 22 37 4 51 9 43 15 -11
7 -11 9 -1 9 7 0 1 11 -14 25 -15 14 -32 25 -37 25 -6 0 -7 3 -3 7 3 4 -4 13
-16 20 -23 12 -23 12 7 13 l29 0 -22 16 c-14 10 -36 14 -53 12 -27 -4 -28 -3
-15 10 18 19 99 17 171 -2 74 -21 133 -35 195 -47 51 -10 61 -8 135 21 44 17
100 40 124 51 24 11 82 34 130 51 47 17 88 34 91 38 3 4 18 10 35 14 16 4 47
15 70 25 22 10 60 25 85 35 25 10 59 24 75 31 17 8 41 17 55 21 22 5 61 21
135 54 66 29 113 47 137 53 15 4 56 21 91 37 36 17 68 30 71 30 3 0 30 12 61
26 l55 26 0 359 c0 312 -2 359 -15 359 -8 0 -15 -7 -15 -15z m-2752 -1126 c2
-5 22 -9 45 -9 28 0 37 3 28 9 -21 14 20 24 50 12 21 -8 22 -10 7 -16 -10 -4
-18 -15 -18 -25 0 -10 -8 -21 -17 -23 -13 -3 -12 -5 5 -6 13 0 21 -5 17 -10
-3 -5 3 -12 12 -14 16 -4 15 -6 -4 -12 -24 -8 -40 -35 -20 -35 7 0 1 -6 -13
-13 -14 -7 -26 -23 -28 -36 -5 -29 -34 -58 -64 -63 -13 -2 -22 -9 -20 -16 3
-19 -33 -14 -58 8 -13 11 -18 20 -12 20 16 0 15 70 0 72 -7 1 12 4 42 8 l55 7
-51 1 c-38 2 -51 6 -51 17 0 8 7 15 14 15 8 0 11 5 8 10 -3 6 0 10 7 11 9 0
10 2 1 5 -7 3 -9 12 -6 20 3 8 -1 14 -9 14 -13 0 -48 33 -48 46 0 3 16 2 35
-2 27 -5 36 -3 41 10 7 17 45 13 52 -5z m-415 -318 c6 -6 5 -15 -6 -25 -13
-13 -46 -16 -179 -18 -180 -3 -218 2 -218 32 0 17 9 20 68 23 107 7 324 -1
335 -12z m1061 -14 c16 -12 12 -15 -36 -39 -98 -48 -153 -61 -195 -47 -26 9
-89 12 -191 11 -93 -1 -151 2 -147 8 3 5 22 12 43 16 20 4 42 10 47 14 6 5 71
11 145 13 133 5 256 19 267 31 11 10 48 7 67 -7z m-979 -74 c41 -4 52 -8 37
-12 -13 -3 22 -7 78 -7 57 -1 105 -6 109 -11 9 -15 91 -51 140 -62 24 -5 49
-17 56 -28 7 -10 13 -18 12 -19 -1 -1 -108 -3 -237 -6 -161 -3 -207 -2 -145 3
124 12 133 16 40 19 l-80 3 55 7 c71 9 55 12 -45 10 -58 -1 -83 -5 -92 -16
-10 -14 -14 -13 -32 5 -12 12 -21 26 -21 31 0 6 -7 10 -15 10 -8 0 -15 6 -15
14 0 22 -63 46 -127 48 -48 1 -42 3 32 8 139 9 185 9 250 3z"/>
<path d="M0 2100 l0 -190 24 0 c27 0 43 -27 26 -44 -8 -8 -14 -6 -21 7 -13 23
-29 22 -29 -2 0 -21 40 -31 132 -31 31 0 58 -5 60 -10 2 -6 30 -15 63 -21 33
-6 79 -20 103 -31 29 -13 52 -17 73 -13 39 9 32 27 -17 41 l-39 11 39 8 c31 6
41 4 48 -9 5 -9 17 -16 26 -16 22 -1 58 -28 49 -37 -4 -3 -42 -8 -85 -11 l-78
-4 4 -34 c4 -33 3 -34 -29 -34 -48 0 -79 -10 -79 -25 0 -7 -12 -18 -28 -23
-27 -9 -27 -9 13 -16 22 -4 57 -14 77 -23 29 -12 41 -13 52 -4 11 10 16 9 23
-2 4 -8 42 -19 85 -27 60 -10 77 -17 81 -31 3 -12 14 -19 29 -19 31 0 78 -22
78 -36 0 -7 7 -14 15 -18 25 -9 17 -26 -13 -26 -16 0 -32 -8 -40 -20 -22 -36
-42 -25 -42 25 0 33 -4 45 -15 45 -8 0 -15 5 -15 10 0 6 -11 10 -24 10 -13 0
-26 6 -29 13 -3 9 -10 9 -32 -3 l-29 -15 27 -3 c24 -3 25 -5 13 -18 -8 -8 -25
-14 -39 -14 -32 0 -104 -36 -86 -43 8 -3 5 -6 -9 -6 -12 -1 -25 -8 -28 -16 -4
-9 -19 -15 -35 -15 -16 0 -29 -4 -29 -8 0 -9 308 -22 524 -22 231 0 379 16
309 33 -14 3 -12 6 10 15 15 6 27 14 27 16 0 2 -17 10 -37 17 -20 6 -46 20
-57 30 -11 11 -23 19 -28 19 -4 0 -8 5 -8 10 0 11 -36 50 -46 50 -12 0 -34 29
-34 46 0 9 -8 23 -17 31 -17 12 -16 13 7 12 54 -4 94 1 85 10 -12 12 -82 15
-112 6 -24 -8 -33 9 -10 19 6 2 3 4 -8 4 -30 -2 -85 22 -85 37 0 7 -7 15 -15
19 -8 3 -15 17 -15 30 0 21 -6 26 -35 32 -19 3 -33 9 -31 13 3 4 -18 19 -45
34 -27 16 -49 33 -49 38 0 21 -52 30 -84 15 -47 -22 -90 -31 -82 -17 4 6 1 11
-8 11 -19 0 -21 -11 -4 -28 9 -9 5 -12 -17 -11 -17 0 -24 3 -17 6 16 6 -3 33
-23 33 -7 0 -20 15 -28 32 -14 28 -14 34 -1 41 21 12 17 29 -6 22 -27 -8 -90
23 -83 41 3 7 -2 17 -11 20 -9 3 -16 12 -16 20 0 8 -6 14 -14 14 -8 0 -16 6
-19 14 -3 8 -21 16 -39 18 -25 2 -34 8 -36 26 -3 18 1 22 25 22 19 0 24 -3 15
-9 -11 -7 -10 -10 3 -15 9 -3 26 -6 38 -5 12 0 16 3 10 6 -7 2 -13 11 -13 18
0 8 -10 17 -22 20 -48 15 -88 38 -88 51 0 8 -7 14 -15 14 -8 0 -15 4 -15 10 0
12 -32 50 -42 50 -5 0 -8 -85 -8 -190z"/>
<path d="M7235 2000 c-3 -5 -3 -10 2 -10 4 0 1 -5 -7 -10 -13 -8 -13 -10 2
-10 26 0 38 -32 38 -100 0 -45 4 -62 15 -66 18 -7 20 -34 3 -34 -10 0 -10 -2
-2 -8 7 -4 14 -18 15 -32 6 -40 43 -34 47 8 2 20 9 32 18 32 8 0 14 7 14 15 0
8 6 15 13 16 6 1 1 5 -13 9 l-25 8 28 1 c33 1 38 31 5 32 l-23 0 23 9 c33 14
30 56 -5 65 l-28 8 25 7 c24 8 23 8 -7 9 -17 1 -34 5 -38 10 -3 5 -19 12 -35
16 -17 4 -30 13 -30 21 0 16 -26 19 -35 4z"/>
<path d="M10493 1888 c-46 -15 -41 -26 15 -33 26 -3 70 -10 97 -16 28 -6 59
-9 70 -8 47 5 219 -2 208 -9 -10 -6 46 -8 120 -4 34 2 36 22 2 22 -14 0 -25
-4 -25 -10 0 -5 -12 -10 -27 -10 -28 1 -28 1 -6 13 20 11 8 13 -79 15 -63 1
-105 7 -109 14 -5 7 -27 9 -69 5 -41 -5 -59 -3 -55 4 5 7 -13 8 -57 4 -46 -4
-57 -3 -40 4 47 21 13 27 -45 9z"/>
<path d="M0 1806 c0 -26 22 -36 35 -16 4 7 11 7 18 2 7 -5 29 -12 50 -16 20
-4 37 -11 37 -16 0 -5 11 -12 25 -16 14 -3 25 -13 25 -21 0 -11 7 -13 26 -9
15 4 32 2 40 -5 7 -6 21 -9 29 -5 26 9 17 35 -17 50 -29 12 -31 15 -14 22 23
9 -91 39 -191 50 l-63 7 0 -27z"/>
<path d="M1 1510 l-1 -180 48 1 c82 2 177 14 172 21 -3 4 4 14 15 23 14 12 16
18 7 21 -6 3 -10 10 -6 15 3 5 -1 9 -8 9 -9 0 -9 3 2 10 10 6 11 10 3 10 -7 0
-13 10 -13 22 0 12 -12 33 -27 45 -14 13 -21 23 -15 23 7 0 12 13 12 28 0 25
-6 30 -40 41 -22 6 -40 15 -40 19 0 5 -17 14 -37 22 -33 11 -35 14 -18 21 19
7 19 8 -2 8 -12 1 -25 6 -28 11 -19 30 -24 -7 -24 -170z"/>
<path d="M11890 1490 c12 -9 12 -13 2 -17 -10 -4 -10 -8 -1 -19 8 -10 8 -14 0
-14 -6 0 -11 -7 -11 -15 0 -8 -5 -15 -12 -15 -6 0 -9 -3 -5 -6 3 -4 -1 -13 -9
-22 -13 -12 -13 -16 -2 -23 10 -6 8 -9 -7 -10 -11 0 -14 -3 -7 -6 24 -10 12
-41 -24 -58 -25 -12 -34 -21 -29 -33 3 -8 0 -19 -7 -24 -10 -6 -10 -8 1 -8 11
0 11 -3 1 -15 -18 -22 22 -55 67 -55 26 0 33 4 33 20 0 11 5 20 10 20 6 0 10
7 10 15 0 8 7 15 15 15 9 0 15 9 15 25 0 14 4 25 9 25 4 0 25 16 45 35 35 33
64 43 79 28 4 -3 2 -12 -4 -20 -9 -10 -4 -13 27 -13 34 1 36 2 19 12 -19 11
-19 11 0 19 17 7 18 8 3 8 -12 1 -18 9 -18 26 0 14 -4 25 -10 25 -5 0 -10 7
-10 15 0 8 -6 15 -14 15 -8 0 -16 6 -19 13 -6 16 -85 55 -128 63 -27 4 -31 3
-19 -6z"/>
<path d="M5440 1259 c41 -4 136 -13 210 -19 178 -14 274 -29 316 -46 18 -8 46
-14 61 -14 27 1 27 1 9 15 -20 15 -20 15 0 30 10 8 15 15 9 15 -137 8 -620 29
-645 28 -19 0 -1 -4 40 -9z"/>
<path d="M6217 1159 l-28 -29 25 0 c14 0 27 -4 30 -9 3 -5 28 -14 54 -21 60
-14 182 3 182 26 0 8 6 14 13 15 6 0 1 5 -13 11 -54 22 -133 38 -183 37 -44
-1 -56 -6 -80 -30z"/>
<path d="M13355 862 c-71 -1 -134 -7 -139 -12 -7 -7 -5 -10 3 -10 19 0 49 -32
33 -38 -6 -2 -12 -11 -12 -19 0 -13 20 -14 153 -9 83 3 254 9 380 12 l227 6 0
39 0 39 -257 -2 c-142 -2 -316 -4 -388 -6z"/>
<path d="M6700 680 c21 -7 19 -8 -17 -9 -48 -1 -93 -16 -93 -30 0 -17 52 -38
110 -45 39 -5 51 -4 40 3 -11 8 -6 9 20 5 55 -8 95 8 95 36 0 22 -6 26 -70 37
-82 14 -124 16 -85 3z"/>
<path d="M6220 460 c-33 -7 -31 -7 18 -9 31 0 52 -6 52 -12 0 -8 -12 -10 -34
-6 -43 7 -84 -2 -64 -14 8 -6 -6 -9 -37 -10 -27 0 -44 -3 -37 -6 19 -7 4 -23
-24 -23 -17 0 -24 -5 -24 -20 0 -11 -7 -20 -15 -20 -9 0 -18 -7 -21 -15 -4 -8
-10 -15 -15 -15 -5 0 -31 -10 -58 -22 -43 -18 -48 -23 -34 -33 13 -10 7 -13
-38 -20 -30 -5 -45 -10 -33 -12 22 -4 22 -4 -2 -29 -14 -13 -37 -24 -52 -25
-15 0 -21 -3 -14 -6 15 -6 16 -23 1 -23 -19 0 -39 -28 -39 -54 0 -21 -5 -26
-27 -26 -33 0 -24 -10 19 -20 33 -8 33 -8 -9 -9 -31 -1 -43 -5 -43 -16 0 -12
25 -14 146 -14 140 0 148 1 187 26 50 32 98 78 90 87 -4 3 -1 6 5 6 7 0 12 17
12 45 0 29 4 45 13 45 8 0 7 4 -3 10 -12 8 -9 10 13 10 15 0 27 5 27 10 0 6 7
10 15 10 8 0 15 9 15 20 0 13 7 20 18 20 23 0 72 22 72 33 0 4 11 12 25 17 18
7 25 17 25 35 0 14 5 25 10 25 6 0 10 7 10 15 0 8 -4 15 -10 15 -5 0 -10 9
-10 20 0 17 -6 20 -47 19 -27 -1 -64 -5 -83 -9z"/>
<path d="M3448 443 c-10 -3 -18 -7 -18 -10 0 -11 35 -32 52 -33 10 0 40 -14
68 -31 38 -23 57 -29 78 -25 20 5 23 4 12 -4 -13 -8 -12 -10 4 -10 21 0 81
-17 108 -31 10 -5 33 -9 52 -9 19 0 38 -4 41 -10 3 -5 24 -10 47 -10 22 0 61
-7 87 -15 25 -8 77 -22 114 -32 38 -9 71 -22 74 -30 3 -7 15 -13 27 -13 11 0
26 -4 31 -8 12 -9 16 -52 4 -52 -5 0 -9 -7 -9 -15 0 -8 -7 -15 -15 -15 -8 0
-15 -7 -15 -15 0 -8 -11 -17 -25 -21 -14 -3 -25 -11 -25 -16 0 -6 -8 -17 -17
-24 -15 -12 19 -14 230 -12 l247 1 0 24 c0 13 7 26 15 29 8 4 15 16 15 28 0
24 -16 32 -125 66 -38 11 -78 26 -89 31 -27 15 -103 37 -159 45 -27 3 -69 17
-95 29 -26 12 -72 30 -102 39 -30 10 -64 22 -75 26 -27 13 -145 56 -235 86
-41 14 -100 28 -130 30 -109 9 -155 11 -172 7z"/>
<path d="M9252 323 c-29 -2 -50 -8 -47 -12 2 -5 -17 -14 -43 -21 -26 -6 -64
-18 -85 -26 -20 -8 -60 -14 -87 -14 -30 0 -50 -4 -50 -11 0 -11 74 -8 148 7
21 4 32 2 32 -5 0 -6 -11 -11 -24 -11 -13 0 -26 -4 -28 -10 -1 -5 -31 -13 -65
-16 -61 -7 -89 -24 -38 -24 36 0 31 -25 -7 -38 -33 -11 -33 -11 7 -5 22 3 54
11 70 19 17 7 49 18 73 25 23 7 42 18 42 26 0 9 15 13 51 13 31 0 48 4 44 10
-3 6 -1 10 4 10 6 0 11 7 11 15 0 18 -23 20 -48 4 -12 -7 -28 -8 -52 -1 l-35
10 42 1 c23 1 59 11 80 22 21 12 58 25 83 29 38 7 40 8 10 7 -19 0 -59 -2 -88
-4z"/>
<path d="M6903 188 c-49 -10 -55 -28 -18 -52 27 -18 179 -23 190 -7 3 5 19 12
35 16 20 4 30 13 30 24 0 14 -11 20 -46 25 -62 8 -139 6 -191 -6z"/>
<path d="M8605 158 c-55 -12 -183 -26 -350 -38 -224 -15 -269 -20 -276 -32 -6
-9 -11 -9 -22 1 -12 9 -28 9 -79 -2 -34 -8 -96 -15 -137 -16 -41 -1 -88 -8
-105 -16 -36 -17 -142 -35 -203 -35 -23 0 -45 -5 -48 -10 -14 -23 396 -4 463
21 15 6 70 13 122 15 52 3 113 9 135 15 22 5 63 11 90 14 216 19 569 66 575
75 3 5 19 10 35 13 17 2 -13 4 -65 4 -52 1 -113 -3 -135 -9z"/>
</g>
</svg>
